<svg width="38" height="39" viewBox="0 0 38 39" fill="none" xmlns="http://www.w3.org/2000/svg">
<g clip-path="url(#clip0_1_15806)">
<path d="M36.0883 13.0623C35.8227 13.2328 31.134 15.4192 31.134 20.2807C31.134 25.9039 37.1002 27.8932 37.2788 27.9425C37.2513 28.0638 36.331 30.6669 34.1332 33.3194C32.1734 35.6535 30.1267 37.9839 27.0131 37.9839C23.8995 37.9839 23.0982 36.4872 19.5039 36.4872C16.0011 36.4872 14.7556 38.0332 11.9076 38.0332C9.05958 38.0332 7.07237 35.8733 4.78755 33.2209C2.14099 30.1061 0.00268555 25.2673 0.00268555 20.6748C0.00268555 13.3086 5.79031 9.40193 11.4864 9.40193C14.5129 9.40193 17.0359 11.0464 18.9361 11.0464C20.7447 11.0464 23.5653 9.3034 27.0085 9.3034C28.3135 9.3034 33.0022 9.40192 36.0883 13.0623ZM25.3739 6.18489C26.7979 4.78667 27.8052 2.8466 27.8052 0.906528C27.8052 0.637494 27.7778 0.364671 27.7182 0.144897C25.4014 0.216892 22.6449 1.42186 20.9828 3.01711C19.6778 4.24482 18.4599 6.18489 18.4599 8.15149C18.4599 8.44705 18.5194 8.7426 18.5469 8.83733C18.6934 8.86007 18.9315 8.88659 19.1696 8.88659C21.2484 8.88659 23.8629 7.73467 25.3739 6.18489Z" fill="black"/>
</g>
<defs>
<clipPath id="clip0_1_15806">
<rect width="37.2715" height="37.892" fill="white" transform="translate(0.00268555 0.144897)"/>
</clipPath>
</defs>
</svg>
