<svg width="26" height="20" viewBox="0 0 26 20" fill="none" xmlns="http://www.w3.org/2000/svg">
<path d="M9.01263 19.263C13.6326 19.263 17.3784 18.1298 20.7081 16.7132V18.9393H25.5361V9.87329C25.4529 3.07381 21.0827 0.766846 13.3412 0.766846C9.42884 0.766846 5.7662 1.41442 1.97869 2.62861L3.76839 6.02835C7.68076 4.85463 10.6775 4.65226 13.0915 4.65226C15.5887 4.65226 20.7081 4.93557 20.7081 8.69957C18.086 7.89011 14.9644 7.28301 11.5931 7.28301C5.68296 7.28301 0.438721 8.86146 0.438721 13.5159C0.438721 17.6037 3.51867 19.263 9.01263 19.263ZM10.3445 15.7014C7.26455 15.7014 5.26675 15.5395 5.26675 13.3945C5.26675 11.3708 7.88886 10.6423 12.0926 10.6423C15.8385 10.6423 18.6271 11.2089 20.7081 11.8969V13.4754C17.7114 14.6896 13.3412 15.7014 10.3445 15.7014Z" fill="#5991FF"/>
</svg>
