<svg width="29" height="23" viewBox="0 0 29 23" fill="none" xmlns="http://www.w3.org/2000/svg">
<path d="M14.6859 22.263C22.5522 22.263 28.2543 21.2107 28.2543 15.504C28.2543 10.1615 22.8852 9.71631 14.228 9.23063C7.4022 8.8259 5.94546 8.42117 5.94546 6.51894C5.94546 4.77859 7.4022 4.13102 13.3956 4.13102C19.8052 4.13102 22.3441 4.81907 22.3441 7.53076H27.3386C27.3386 2.26926 22.2609 0.245605 14.0199 0.245605C5.94546 0.245605 0.950954 1.58122 0.950954 6.2761C0.950954 11.0519 4.78008 12.509 14.228 12.9542C21.8863 13.3589 23.3014 13.6422 23.3014 15.7063C23.3014 17.6086 21.2203 18.3776 15.0188 18.3776C7.31895 18.3776 5.15467 17.2038 5.15467 14.6136H0.160156C0.160156 20.7655 5.69574 22.263 14.6859 22.263Z" fill="#5991FF"/>
</svg>
