<svg width="80" height="82" viewBox="0 0 80 82" fill="none" xmlns="http://www.w3.org/2000/svg">
<g filter="url(#filter0_d_1_17545)">
<path d="M49.378 35.1456V35.1447H49.3826V27.5236C49.3826 23.7953 48.6722 20.9233 44.8139 20.9233C42.9591 20.9233 41.7144 22.0732 41.2063 23.1633H41.1526V21.2714H37.4944V35.1447H41.3036V28.2752C41.3036 26.4664 41.6071 24.7174 43.5899 24.7174C45.5435 24.7174 45.5727 26.7816 45.5727 28.3912V35.1456H49.378Z" fill="url(#paint0_linear_1_17545)"/>
<path d="M31.2917 21.272H35.1056V35.1453H31.2917V21.272Z" fill="url(#paint1_linear_1_17545)"/>
<path d="M33.1969 14.3647C31.9775 14.3647 30.988 15.4825 30.988 16.8601C30.988 18.2376 31.9775 19.3788 33.1969 19.3788C34.4163 19.3788 35.4058 18.2376 35.4058 16.8601C35.405 15.4825 34.4156 14.3647 33.1969 14.3647V14.3647Z" fill="url(#paint2_linear_1_17545)"/>
</g>
<defs>
<filter id="filter0_d_1_17545" x="0.988037" y="0.364746" width="78.3945" height="80.7808" filterUnits="userSpaceOnUse" color-interpolation-filters="sRGB">
<feFlood flood-opacity="0" result="BackgroundImageFix"/>
<feColorMatrix in="SourceAlpha" type="matrix" values="0 0 0 0 0 0 0 0 0 0 0 0 0 0 0 0 0 0 127 0" result="hardAlpha"/>
<feOffset dy="16"/>
<feGaussianBlur stdDeviation="15"/>
<feComposite in2="hardAlpha" operator="out"/>
<feColorMatrix type="matrix" values="0 0 0 0 0 0 0 0 0 0.220306 0 0 0 0 0.379167 0 0 0 1 0"/>
<feBlend mode="normal" in2="BackgroundImageFix" result="effect1_dropShadow_1_17545"/>
<feBlend mode="normal" in="SourceGraphic" in2="effect1_dropShadow_1_17545" result="shape"/>
</filter>
<linearGradient id="paint0_linear_1_17545" x1="41.6279" y1="34.2378" x2="47.5918" y2="32.002" gradientUnits="userSpaceOnUse">
<stop offset="1" stop-color="#5991FF"/>
</linearGradient>
<linearGradient id="paint1_linear_1_17545" x1="32.6178" y1="34.2598" x2="34.7673" y2="33.9948" gradientUnits="userSpaceOnUse">
<stop offset="1" stop-color="#5991FF"/>
</linearGradient>
<linearGradient id="paint2_linear_1_17545" x1="32.5241" y1="19.0588" x2="34.7104" y2="18.1948" gradientUnits="userSpaceOnUse">
<stop offset="1" stop-color="#5991FF"/>
</linearGradient>
</defs>
</svg>
