<svg width="26" height="20" viewBox="0 0 26 20" fill="none" xmlns="http://www.w3.org/2000/svg">
<path d="M14.1005 19.263C21.2177 19.263 25.8376 18.3726 25.8376 13.4349C25.8376 8.6591 20.8847 8.49721 13.6843 7.93058C6.85845 7.40443 5.81792 7.16159 5.81792 5.98787C5.81792 4.81416 7.39952 4.40942 12.8102 4.40942C18.221 4.40942 20.3852 4.81416 20.3852 6.47355H25.2133C25.2133 1.65725 20.1355 0.766846 13.1432 0.766846C6.60872 0.766846 1.03152 1.65725 1.03152 6.19024C1.03152 10.3994 5.06875 11.0065 13.06 11.5327C20.0939 11.9779 21.0512 12.1398 21.0512 13.6373C21.0512 15.1753 20.0107 15.6205 13.7675 15.6205C7.39952 15.6205 5.06875 14.7705 5.06875 12.6255H0.240723C0.240723 18.3726 6.94169 19.263 14.1005 19.263Z" fill="#5991FF"/>
</svg>
