<svg width="23" height="17" viewBox="0 0 23 17" fill="none" xmlns="http://www.w3.org/2000/svg">
<path d="M8.10602 16.5364C12.1433 16.5364 15.3897 15.5246 18.3448 14.3104V16.2531H22.5485V8.32037C22.5069 2.37082 18.6361 0.347168 11.8935 0.347168C8.43899 0.347168 5.23418 0.913791 1.94613 1.96609L3.4861 4.92063C6.94064 3.9088 9.56276 3.74691 11.6438 3.74691C13.8497 3.74691 18.3448 3.98975 18.3448 7.30854C16.0556 6.58002 13.267 6.05387 10.3536 6.05387C5.19256 6.05387 0.614258 7.42996 0.614258 11.4773C0.614258 15.0794 3.31962 16.5364 8.10602 16.5364ZM9.27141 13.42C6.56605 13.42 4.81797 13.2986 4.81797 11.3963C4.81797 9.61551 7.10712 8.96794 10.7698 8.96794C14.0994 8.96794 16.5134 9.49409 18.3448 10.0607V11.4773C15.7227 12.5296 11.8935 13.42 9.27141 13.42Z" fill="#5991FF"/>
</svg>
