<svg width="41" height="19" viewBox="0 0 41 19" fill="none" xmlns="http://www.w3.org/2000/svg">
<path d="M0.0712891 18.9393H4.89932V8.13295C6.39767 6.51403 9.76896 4.73321 13.2235 4.73321C17.344 4.73321 17.9683 6.91876 17.9683 10.8851V18.9393H22.7547L22.8379 9.95424C22.8379 9.14478 22.7547 8.41626 22.7131 7.68775C24.4611 6.14977 27.4579 4.73321 30.5794 4.73321C34.6999 4.73321 35.2826 6.91876 35.2826 10.8851V18.9393H40.1106L40.1522 9.1043C40.1106 2.54766 36.5312 0.766846 32.1194 0.766846C27.5827 0.766846 24.1282 2.30482 21.6725 4.04517C20.2574 1.53583 17.6769 0.766846 14.7635 0.766846C10.2268 0.766846 6.98036 2.38577 4.89932 3.92375V1.05016H0.0712891V18.9393Z" fill="#5991FF"/>
</svg>
