<svg width="36" height="16" viewBox="0 0 36 16" fill="none" xmlns="http://www.w3.org/2000/svg">
<path d="M0.486328 15.9938H4.73166V6.56358C6.02191 5.10655 9.01861 3.56858 12.0153 3.56858C15.6363 3.56858 16.1358 5.47081 16.1358 8.9515V15.9938H20.3811L20.4227 8.14203C20.4227 7.41352 20.3811 6.76595 20.2979 6.15885C21.8379 4.82324 24.5016 3.56858 27.207 3.56858C30.828 3.56858 31.3274 5.47081 31.3274 8.9515V15.9938H35.5311L35.6144 7.37305C35.5311 1.66634 32.4096 0.0878906 28.5804 0.0878906C24.5848 0.0878906 21.5881 1.4235 19.4238 2.92101C18.1752 0.775933 15.9277 0.0878906 13.3888 0.0878906C9.3932 0.0878906 6.56298 1.50445 4.73166 2.84006V0.330729H0.486328V15.9938Z" fill="white"/>
</svg>
