<svg width="21" height="16" viewBox="0 0 21 16" fill="none" xmlns="http://www.w3.org/2000/svg">
<path d="M10.7456 15.8748C16.2395 15.8748 20.2768 15.1463 20.2768 11.18C20.2768 7.41596 16.4893 7.09218 10.4126 6.76839C5.62622 6.48508 4.5857 6.20177 4.5857 4.86616C4.5857 3.65196 5.62622 3.20676 9.82993 3.20676C14.325 3.20676 16.1147 3.69244 16.1147 5.5542H19.6108C19.6108 1.87115 16.0731 0.45459 10.2878 0.45459C4.5857 0.45459 1.13116 1.42594 1.13116 4.70427C1.13116 8.06353 3.7949 9.07536 10.4126 9.35867C15.7817 9.64198 16.7806 9.88482 16.7806 11.3014C16.7806 12.637 15.3239 13.1631 10.9537 13.1631C5.5846 13.1631 4.04462 12.3537 4.04462 10.5324H0.590088C0.590088 14.8225 4.41921 15.8748 10.7456 15.8748Z" fill="white"/>
</svg>
