<svg width="26" height="20" viewBox="0 0 26 20" fill="none" xmlns="http://www.w3.org/2000/svg">
<path d="M9.372 19.263C13.9919 19.263 17.7378 18.1298 21.0675 16.7132V18.9393H25.8955V9.87329C25.8123 3.07381 21.4421 0.766846 13.7006 0.766846C9.78821 0.766846 6.12557 1.41442 2.33807 2.62861L4.12777 6.02835C8.04013 4.85463 11.0368 4.65226 13.4509 4.65226C15.9481 4.65226 21.0675 4.93557 21.0675 8.69957C18.4454 7.89011 15.3238 7.28301 11.9525 7.28301C6.04233 7.28301 0.798096 8.86146 0.798096 13.5159C0.798096 17.6037 3.87804 19.263 9.372 19.263ZM10.7039 15.7014C7.62393 15.7014 5.62612 15.5395 5.62612 13.3945C5.62612 11.3708 8.24824 10.6423 12.452 10.6423C16.1978 10.6423 18.9864 11.2089 21.0675 11.8969V13.4754C18.0708 14.6896 13.7006 15.7014 10.7039 15.7014Z" fill="#5991FF"/>
</svg>
