<svg width="24" height="17" viewBox="0 0 24 17" fill="none" xmlns="http://www.w3.org/2000/svg">
<path d="M12.8131 16.2771C19.0562 16.2771 23.0935 15.4677 23.0935 11.1775C23.0935 6.96832 18.7233 6.8469 12.4385 6.36122C6.48672 5.91602 5.57106 5.71365 5.57106 4.66135C5.57106 3.64952 6.94455 3.24479 11.6893 3.24479C16.4341 3.24479 18.3071 3.64952 18.3071 5.06608H22.5524C22.5524 0.856879 18.099 0.0878906 11.9807 0.0878906C6.237 0.0878906 1.36735 0.856879 1.36735 4.82324C1.36735 8.54677 4.90513 9.07292 11.8974 9.47765C18.0573 9.88238 18.8898 10.0443 18.8898 11.3394C18.8898 12.7155 18.0157 13.0798 12.5218 13.0798C6.94455 13.0798 4.90513 12.3108 4.90513 10.449H0.701416C0.701416 15.4677 6.56997 16.2771 12.8131 16.2771Z" fill="white"/>
</svg>
