<svg width="22" height="17" viewBox="0 0 22 17" fill="none" xmlns="http://www.w3.org/2000/svg">
<path d="M7.52106 16.2771C11.5583 16.2771 14.8047 15.2653 17.7598 14.0511V15.9938H21.9635V8.06109C21.9219 2.11155 18.0512 0.0878906 11.3086 0.0878906C7.85403 0.0878906 4.64922 0.654514 1.36117 1.70681L2.90114 4.66135C6.35568 3.64952 8.97779 3.48763 11.0588 3.48763C13.2647 3.48763 17.7598 3.73047 17.7598 7.04926C15.4707 6.32075 12.6821 5.7946 9.76859 5.7946C4.6076 5.7946 0.0292969 7.17068 0.0292969 11.218C0.0292969 14.8201 2.73466 16.2771 7.52106 16.2771ZM8.68645 13.1607C5.98109 13.1607 4.23301 13.0393 4.23301 11.137C4.23301 9.35623 6.52216 8.70866 10.1848 8.70866C13.5145 8.70866 15.9285 9.23481 17.7598 9.80143V11.218C15.1377 12.2703 11.3086 13.1607 8.68645 13.1607Z" fill="white"/>
</svg>
