<svg width="23" height="17" viewBox="0 0 23 17" fill="none" xmlns="http://www.w3.org/2000/svg">
<path d="M8.29304 16.2771C12.3303 16.2771 15.5767 15.2653 18.5318 14.0511V15.9938H22.7355V8.06109C22.6939 2.11155 18.8231 0.0878906 12.0805 0.0878906C8.626 0.0878906 5.42119 0.654514 2.13314 1.70681L3.67311 4.66135C7.12765 3.64952 9.74977 3.48763 11.8308 3.48763C14.0367 3.48763 18.5318 3.73047 18.5318 7.04926C16.2426 6.32075 13.454 5.7946 10.5406 5.7946C5.37957 5.7946 0.80127 7.17068 0.80127 11.218C0.80127 14.8201 3.50663 16.2771 8.29304 16.2771ZM9.45842 13.1607C6.75306 13.1607 5.00498 13.0393 5.00498 11.137C5.00498 9.35623 7.29413 8.70866 10.9568 8.70866C14.2864 8.70866 16.7005 9.23481 18.5318 9.80143V11.218C15.9097 12.2703 12.0805 13.1607 9.45842 13.1607Z" fill="white"/>
</svg>
