<svg width="19" height="14" viewBox="0 0 19 14" fill="none" xmlns="http://www.w3.org/2000/svg">
<path d="M6.74829 13.8747C9.9531 13.8747 12.5752 13.1057 14.9476 12.0939V13.6724H18.3189V7.31809C18.2773 2.54226 15.1973 0.92334 9.78662 0.92334C6.99802 0.92334 4.45914 1.40902 1.83703 2.25895L3.04403 4.60639C5.79101 3.79693 7.91368 3.63504 9.57852 3.63504C11.3682 3.63504 14.9476 3.87788 14.9476 6.50863C13.0747 5.90153 10.9104 5.4968 8.53799 5.4968C4.3759 5.4968 0.754883 6.58957 0.754883 9.86789C0.754883 12.7415 2.87755 13.8747 6.74829 13.8747ZM7.66395 11.4059C5.49967 11.4059 4.12618 11.2844 4.12618 9.78695C4.12618 8.37039 5.9575 7.84424 8.87096 7.84424C11.5347 7.84424 13.4493 8.24897 14.9476 8.73465V9.82742C12.8249 10.6774 9.78662 11.4059 7.66395 11.4059Z" fill="white"/>
</svg>
