<svg width="49" height="41" viewBox="0 0 49 41" fill="none" xmlns="http://www.w3.org/2000/svg">
<path d="M4.89966 4.78496V35.4009C4.89991 35.4673 4.92379 35.5322 4.96832 35.5874C5.01286 35.6426 5.07605 35.6857 5.14998 35.7112C5.22391 35.7368 5.30529 35.7436 5.38391 35.731C5.46253 35.7183 5.53489 35.6867 5.59192 35.64L24.8129 20.0937L5.59192 4.5458C5.53489 4.49917 5.46253 4.46753 5.38391 4.45487C5.30529 4.44221 5.22391 4.44908 5.14998 4.47462C5.07605 4.50016 5.01286 4.54324 4.96832 4.59845C4.92379 4.65366 4.89991 4.71854 4.89966 4.78496Z" fill="white"/>
<path d="M32.8721 13.7056L8.7715 2.69327L8.75647 2.68626C8.3413 2.49929 7.94679 2.96515 8.28682 3.23626L27.179 18.2186L32.8721 13.7056Z" fill="white"/>
<path d="M8.2889 36.9511C7.94699 37.2222 8.3415 37.6881 8.75855 37.5011L8.77358 37.4941L32.8723 26.4817L27.1792 21.9673L8.2889 36.9511Z" fill="white"/>
<path d="M42.6014 18.1461L35.8713 15.0721L29.5432 20.0937L35.8713 25.113L42.6014 22.0413C44.4321 21.2023 44.4321 18.9851 42.6014 18.1461Z" fill="white"/>
</svg>
