<svg width="20" height="20" viewBox="0 0 20 20" fill="none" xmlns="http://www.w3.org/2000/svg">
<path d="M7.30826 12.025L8.64993 12.6249C9.50826 13.0083 10.4916 13.0083 11.3583 12.6249L12.6999 12.025C13.8999 11.4916 15.0083 12.9416 14.1749 13.9583L11.2916 17.4833C10.5833 18.3499 9.42493 18.3499 8.70826 17.4833L5.83326 13.9583C4.9916 12.9416 6.09993 11.4916 7.30826 12.025Z" fill="white"/>
<path d="M7.14156 9.72498C6.89156 9.90831 6.9249 10.2916 7.20823 10.4333L9.16657 11.4083C9.6249 11.6416 10.3666 11.6416 10.8166 11.4083L12.7749 10.4333C13.0499 10.2916 13.0832 9.91664 12.8416 9.72498L10.2499 7.77498C10.0999 7.66664 9.8999 7.66664 9.7499 7.77498L7.14156 9.72498Z" fill="white"/>
<path d="M14.9 6.86664L11.425 2.5333C11.3583 2.44997 11.2833 2.37497 11.2083 2.29997C10.9917 2.09164 10.6833 2.2833 10.6833 2.5833V6.16664C10.6833 6.29997 10.7417 6.42497 10.85 6.49997L14.3083 9.09997L14.4583 9.2083C14.6083 9.31664 14.8167 9.31664 14.9417 9.1833C15.525 8.54997 15.5167 7.6333 14.9 6.86664Z" fill="white"/>
<path d="M5.09163 6.94166L8.54996 2.54166C8.61663 2.45833 8.6833 2.38333 8.7583 2.30833C8.97496 2.09999 9.28329 2.28333 9.28329 2.59166V6.23333C9.28329 6.36666 9.22496 6.48333 9.11663 6.56666L5.67496 9.20833L5.53329 9.31666C5.38329 9.42499 5.17496 9.42499 5.04163 9.28333C4.47496 8.64166 4.48329 7.72499 5.09163 6.94166Z" fill="white"/>
</svg>
